<svg width="50" height="50" viewBox="0 0 50 50" fill="none" xmlns="http://www.w3.org/2000/svg">
<path d="M22.1875 45H13.2812C9.6875 45 6.875 42.0313 6.875 38.5938V24.0625L12.5 7.8125H23.125L26.5625 13.75L37.3438 10.625C39.6875 10 41.875 11.7188 41.875 14.0625V22.0313" stroke="currentColor" stroke-width="3" stroke-miterlimit="10" stroke-linecap="round" stroke-linejoin="round"/>
<path d="M31.875 19.8448L30.9375 17.6573L36.5625 15.6261C37.1875 15.3136 37.8125 15.9386 37.8125 16.5636V19.5323" stroke="currentColor" stroke-width="3" stroke-miterlimit="10" stroke-linecap="round" stroke-linejoin="round"/>
<path d="M12.5 2.96875H23.2813" stroke="currentColor" stroke-width="3" stroke-miterlimit="10" stroke-linecap="round" stroke-linejoin="round"/>
<path d="M8.125 38.5938H22.1875" stroke="currentColor" stroke-width="3" stroke-miterlimit="10" stroke-linecap="round" stroke-linejoin="round"/>
<path d="M8.125 24.0625H22.1875" stroke="currentColor" stroke-width="3" stroke-miterlimit="10" stroke-linecap="round" stroke-linejoin="round"/>
<path d="M43.2812 39.2188C42.8125 32.5 36.25 27.0312 36.25 27.0312C36.25 27.0312 29.6875 32.3438 29.2188 39.2188C29.2188 39.5313 29.2188 39.6875 29.2188 40C29.2188 43.9063 32.3437 47.0313 36.25 47.0313C40.1562 47.0313 43.2812 43.9063 43.2812 40C43.2812 39.6875 43.2812 39.375 43.2812 39.2188Z" stroke="currentColor" stroke-width="3" stroke-miterlimit="10" stroke-linecap="round" stroke-linejoin="round"/>
</svg>
