<svg width="46" height="46" viewBox="0 0 46 46" fill="none" xmlns="http://www.w3.org/2000/svg">
<path d="M28.9375 5.96875H16.4375" stroke="currentColor" stroke-width="2" stroke-miterlimit="10" stroke-linecap="round" stroke-linejoin="round"/>
<path d="M10.3438 5.96875H6.28125C3.9375 5.96875 1.90625 8 1.90625 10.3438V40.5C1.90625 42.8438 3.9375 44.875 6.28125 44.875H39.7188C42.0625 44.875 44.0938 42.8438 44.0938 40.5V10.3438C44.0938 8 42.0625 5.96875 39.7188 5.96875H35.6563" stroke="currentColor" stroke-width="2" stroke-miterlimit="10" stroke-linecap="round" stroke-linejoin="round"/>
<path d="M13.4687 1.125C11.9062 1.125 10.8125 2.375 10.8125 3.78125V9.875C10.8125 11.4375 12.0625 12.5313 13.4687 12.5313C15.0312 12.5313 16.125 11.2812 16.125 9.875V3.78125C16.125 2.375 15.0312 1.125 13.4687 1.125Z" stroke="currentColor" stroke-width="2" stroke-miterlimit="10" stroke-linecap="round" stroke-linejoin="round"/>
<path d="M32.5308 1.125C30.9683 1.125 29.8745 2.375 29.8745 3.78125V9.875C29.8745 11.4375 31.1245 12.5313 32.5308 12.5313C34.0933 12.5313 35.187 11.2812 35.187 9.875V3.78125C35.187 2.375 34.0933 1.125 32.5308 1.125Z" stroke="currentColor" stroke-width="2" stroke-miterlimit="10" stroke-linecap="round" stroke-linejoin="round"/>
<path d="M2.53101 19.4062H42.531" stroke="currentColor" stroke-width="2" stroke-miterlimit="10" stroke-linecap="round" stroke-linejoin="round"/>
</svg>
