<svg width="644" height="368" viewBox="0 0 644 368" fill="none" xmlns="http://www.w3.org/2000/svg">
<rect opacity="0.5" x="2.5" y="3.5" width="638" height="361" rx="3.5" fill="currentColor" stroke="#0089FF"/>
<path d="M573.6 3H641V60.3612M69.6667 3H3V59.9452M641 307.639V365H574.333M3 308.055V365H69.6667" stroke="#0089FF" stroke-width="6"/>
<path d="M252.75 309.125L201.125 282C192.375 277.625 188.875 266.25 193.25 257.5L256.25 137.625C260.625 128.875 272 125.375 280.75 129.75L332.375 156.875C341.125 161.25 344.625 172.625 340.25 181.375L277.25 301.25C272.875 310 262.375 313.5 252.75 309.125Z" stroke="#0089FF" stroke-width="4" stroke-miterlimit="10" stroke-linecap="round" stroke-linejoin="round"/>
<path d="M337.767 186.868L253.322 142.538L196.384 250.999L280.829 295.329L337.767 186.868Z" stroke="#0089FF" stroke-width="4" stroke-miterlimit="10" stroke-linecap="round" stroke-linejoin="round"/>
<path d="M294.75 100V76.375C294.75 67.625 300.875 61.5 309.625 61.5H336.75" stroke="#0089FF" stroke-width="4" stroke-miterlimit="10" stroke-linecap="round" stroke-linejoin="round"/>
<path d="M405 61.5H428.625C437.375 61.5 443.5 67.625 443.5 76.375V100" stroke="#0089FF" stroke-width="4" stroke-miterlimit="10" stroke-linecap="round" stroke-linejoin="round"/>
<path d="M443.5 171.75V195.375C443.5 203.25 437.375 210.25 428.625 210.25H407.625" stroke="#0089FF" stroke-width="4" stroke-miterlimit="10" stroke-linecap="round" stroke-linejoin="round"/>
<path d="M326.25 96.5V147.25" stroke="#0089FF" stroke-width="4" stroke-miterlimit="10" stroke-linecap="round" stroke-linejoin="round"/>
<path d="M355.125 96.5V175.25" stroke="#0089FF" stroke-width="4" stroke-miterlimit="10" stroke-linecap="round" stroke-linejoin="round"/>
<path d="M412 96.5V175.25" stroke="#0089FF" stroke-width="4" stroke-miterlimit="10" stroke-linecap="round" stroke-linejoin="round"/>
<path d="M382.25 96.5V175.25" stroke="#0089FF" stroke-width="4" stroke-miterlimit="10" stroke-linecap="round" stroke-linejoin="round"/>
</svg>
